<svg width="40" height="32" viewBox="0 0 40 32" fill="none" xmlns="http://www.w3.org/2000/svg">
<path d="M35.7271 0.547953C35.4396 0.638824 35.1865 0.845636 34.974 1.16526C34.8709 1.32193 34.6678 1.80763 33.2959 5.20437L32.7928 6.45151H16.7396H0.686516L0.495891 6.54865C0.205266 6.69279 0.0396409 6.92781 0.00214089 7.24116C-0.0197341 7.43857 0.130266 8.16555 0.258391 8.4695C0.352141 8.69198 0.611516 9.5349 1.86464 13.69C2.15839 14.6645 2.48027 15.7361 2.58339 16.0714C2.73964 16.5916 3.30214 18.4529 4.13339 21.201C4.24277 21.5676 4.42402 22.1724 4.53964 22.5453C4.72402 23.1595 4.74277 23.2503 4.75214 23.5386C4.76464 24.0243 4.89902 24.2593 5.21464 24.3471C5.35839 24.3847 7.64589 24.3909 7.93964 24.3533C8.05214 24.3408 8.08652 24.3439 8.07089 24.3721C8.05839 24.3909 8.03339 24.4066 8.01464 24.4066C7.99589 24.4066 7.88027 24.4505 7.75839 24.5069C6.99277 24.8516 6.30214 25.5503 5.97402 26.3118C5.36777 27.7125 5.66152 29.3168 6.71777 30.3666C8.65214 32.2874 11.8428 31.3724 12.5428 28.7027C12.649 28.2984 12.6771 27.5965 12.6021 27.1672C12.4803 26.4622 12.1459 25.801 11.649 25.2715C11.3178 24.9205 10.7615 24.5602 10.3178 24.4066L10.1615 24.3533L10.9896 24.3314C11.7959 24.3126 16.349 24.2656 20.6146 24.2343C21.774 24.2249 22.7865 24.2092 22.8646 24.2029C23.0521 24.1873 22.9428 24.2311 22.6771 24.2813C22.0646 24.3941 21.3209 24.8108 20.8865 25.2809C20.2209 26.0078 19.8959 26.8257 19.8959 27.7845C19.8959 28.7747 20.2209 29.602 20.8771 30.2914C21.3803 30.8178 21.9334 31.1374 22.6146 31.2972C24.5084 31.7453 26.4115 30.4888 26.8178 28.5303C27.0584 27.3553 26.6896 26.0924 25.8584 25.2558C25.2865 24.6792 24.674 24.3659 23.8646 24.2374C23.6646 24.2061 23.924 24.1967 25.6928 24.1747C27.0334 24.1622 27.7959 24.1403 27.8709 24.1183C27.9365 24.0995 28.0084 24.0525 28.0334 24.0181C28.0584 23.9805 28.1521 23.8739 28.2459 23.7799C28.3896 23.6295 28.4459 23.5261 28.6834 22.9965C28.8303 22.6612 29.1146 22.0251 29.3115 21.5864C30.0615 19.91 30.5084 18.9135 30.8334 18.1866C31.0178 17.7729 32.1084 15.3413 33.2553 12.7812C34.4053 10.2211 35.3615 8.06528 35.3834 7.98694C35.4021 7.9086 35.7115 7.19729 36.0678 6.40451C36.424 5.61173 36.7428 4.90355 36.774 4.83148L36.8303 4.69674L37.4178 5.32031C37.7396 5.66186 38.0615 6.00969 38.1271 6.09116C38.4271 6.45151 39.0271 6.51105 39.3209 6.2071C39.649 5.86555 40.0521 4.53693 39.9771 4.03556C39.9584 3.90396 39.9303 3.86949 39.6678 3.62507C39.5084 3.4778 39.2303 3.17071 39.0521 2.94197C37.9365 1.52248 37.7521 1.32193 37.299 1.01485C36.6178 0.557352 36.1521 0.419477 35.7271 0.547953ZM30.9084 10.5627C30.6396 11.2239 30.399 11.8161 30.374 11.885L30.324 12.0041L30.1646 11.9853C30.0771 11.9759 24.2584 11.9665 17.2365 11.9665H4.46464L4.40214 11.7221C4.07714 10.4969 3.80214 9.4315 3.80214 9.40016C3.80214 9.37509 7.27402 9.36569 17.5959 9.36569H31.3928L30.9084 10.5627ZM29.1334 14.934C29.1209 14.9653 28.9553 15.3821 28.7646 15.8584L28.4146 16.7295H17.0678H5.72089L5.49277 15.8584C5.36777 15.3821 5.25839 14.9653 5.25214 14.934C5.23652 14.8838 5.82089 14.8807 17.1928 14.8807C28.5709 14.8807 29.1521 14.8838 29.1334 14.934ZM26.874 20.5273C26.6771 21.0161 26.5084 21.4329 26.499 21.4517C26.4865 21.483 24.5053 21.4924 16.7396 21.4924C10.7896 21.4924 6.98652 21.4799 6.97402 21.4642C6.95839 21.436 6.48964 19.6907 6.48964 19.6562C6.48964 19.6499 11.1584 19.6437 16.8615 19.6437H27.2334L26.874 20.5273Z" fill="white"/>
</svg>
