<svg width="64" height="64" viewBox="0 0 64 64" fill="none" xmlns="http://www.w3.org/2000/svg">
<circle cx="32" cy="32" r="32" fill="#EB5757"/>
<path d="M49.7271 17.0457C49.4396 17.1366 49.1865 17.3434 48.974 17.663C48.8709 17.8197 48.6678 18.3054 47.2959 21.7021L46.7928 22.9493H30.7396H14.6865L14.4959 23.0464C14.2053 23.1906 14.0396 23.4256 14.0021 23.7389C13.9803 23.9363 14.1303 24.6633 14.2584 24.9673C14.3521 25.1898 14.6115 26.0327 15.8646 30.1877C16.1584 31.1623 16.4803 32.2339 16.5834 32.5692C16.7396 33.0894 17.3021 34.9507 18.1334 37.6988C18.2428 38.0654 18.424 38.6702 18.5396 39.0431C18.724 39.6572 18.7428 39.7481 18.7521 40.0364C18.7646 40.5221 18.899 40.7571 19.2146 40.8448C19.3584 40.8824 21.6459 40.8887 21.9396 40.8511C22.0521 40.8386 22.0865 40.8417 22.0709 40.8699C22.0584 40.8887 22.0334 40.9044 22.0146 40.9044C21.9959 40.9044 21.8803 40.9483 21.7584 41.0047C20.9928 41.3493 20.3021 42.0481 19.974 42.8096C19.3678 44.2103 19.6615 45.8146 20.7178 46.8643C22.6521 48.7852 25.8428 47.8702 26.5428 45.2004C26.649 44.7962 26.6771 44.0943 26.6021 43.665C26.4803 42.96 26.1459 42.2988 25.649 41.7692C25.3178 41.4183 24.7615 41.0579 24.3178 40.9044L24.1615 40.8511L24.9896 40.8292C25.7959 40.8104 30.349 40.7634 34.6146 40.732C35.774 40.7226 36.7865 40.707 36.8646 40.7007C37.0521 40.685 36.9428 40.7289 36.6771 40.779C36.0646 40.8918 35.3209 41.3086 34.8865 41.7786C34.2209 42.5056 33.8959 43.3235 33.8959 44.2823C33.8959 45.2725 34.2209 46.0998 34.8771 46.7891C35.3803 47.3156 35.9334 47.6352 36.6146 47.795C38.5084 48.2431 40.4115 46.9866 40.8178 45.0281C41.0584 43.853 40.6896 42.5902 39.8584 41.7536C39.2865 41.177 38.674 40.8636 37.8646 40.7352C37.6646 40.7038 37.924 40.6944 39.6928 40.6725C41.0334 40.66 41.7959 40.638 41.8709 40.6161C41.9365 40.5973 42.0084 40.5503 42.0334 40.5158C42.0584 40.4782 42.1521 40.3717 42.2459 40.2777C42.3896 40.1273 42.4459 40.0239 42.6834 39.4943C42.8303 39.159 43.1146 38.5229 43.3115 38.0842C44.0615 36.4078 44.5084 35.4113 44.8334 34.6843C45.0178 34.2707 46.1084 31.8391 47.2553 29.279C48.4053 26.7189 49.3615 24.5631 49.3834 24.4847C49.4021 24.4064 49.7115 23.6951 50.0678 22.9023C50.424 22.1095 50.7428 21.4013 50.774 21.3293L50.8303 21.1945L51.4178 21.8181C51.7396 22.1596 52.0615 22.5075 52.1271 22.5889C52.4271 22.9493 53.0271 23.0088 53.3209 22.7049C53.649 22.3633 54.0521 21.0347 53.9771 20.5333C53.9584 20.4017 53.9303 20.3673 53.6678 20.1228C53.5084 19.9756 53.2303 19.6685 53.0521 19.4397C51.9365 18.0203 51.7521 17.8197 51.299 17.5126C50.6178 17.0551 50.1521 16.9172 49.7271 17.0457ZM44.9084 27.0605C44.6396 27.7216 44.399 28.3139 44.374 28.3828L44.324 28.5019L44.1646 28.4831C44.0771 28.4737 38.2584 28.4643 31.2365 28.4643H18.4646L18.4021 28.2199C18.0771 26.9947 17.8021 25.9293 17.8021 25.8979C17.8021 25.8729 21.274 25.8635 31.5959 25.8635H45.3928L44.9084 27.0605ZM43.1334 31.4317C43.1209 31.4631 42.9553 31.8798 42.7646 32.3561L42.4146 33.2272H31.0678H19.7209L19.4928 32.3561C19.3678 31.8798 19.2584 31.4631 19.2521 31.4317C19.2365 31.3816 19.8209 31.3785 31.1928 31.3785C42.5709 31.3785 43.1521 31.3816 43.1334 31.4317ZM40.874 37.0251C40.6771 37.5139 40.5084 37.9307 40.499 37.9495C40.4865 37.9808 38.5053 37.9902 30.7396 37.9902C24.7896 37.9902 20.9865 37.9777 20.974 37.962C20.9584 37.9338 20.4896 36.1884 20.4896 36.154C20.4896 36.1477 25.1584 36.1414 30.8615 36.1414H41.2334L40.874 37.0251Z" fill="white"/>
</svg>
