<svg width="46" height="46" viewBox="0 0 46 46" fill="none" xmlns="http://www.w3.org/2000/svg">
<path d="M41.2054 4.80628C36.8656 0.48318 30.6255 0 23 0C15.3649 0 9.11537 0.48875 4.77735 4.82353C0.439964 9.15652 0 15.396 0 23.0224C0 30.65 0.439965 36.8914 4.77915 41.2259C9.11689 45.5613 15.3657 46.0001 23 46.0001C30.6344 46.0001 36.8821 45.5613 41.2199 41.2259C45.5588 36.8906 46 30.65 46 23.0224C46 15.3862 45.554 9.13998 41.2054 4.80628Z" fill="#F3F3F3"/>
<path d="M33.3 17.2043C33.1432 17.3258 30.3757 18.8837 30.3757 22.3478C30.3757 26.3546 33.8973 27.7721 34.0027 27.8072C33.9865 27.8936 33.4432 29.7485 32.1459 31.6385C30.9892 33.3017 29.7811 34.9622 27.9432 34.9622C26.1054 34.9622 25.6324 33.8957 23.5108 33.8957C21.4432 33.8957 20.7081 34.9973 19.027 34.9973C17.3459 34.9973 16.173 33.4583 14.8243 31.5683C13.2622 29.3489 12 25.901 12 22.6286C12 17.3798 15.4162 14.5961 18.7784 14.5961C20.5649 14.5961 22.0541 15.7679 23.1757 15.7679C24.2432 15.7679 25.9081 14.5259 27.9405 14.5259C28.7108 14.5259 31.4784 14.5961 33.3 17.2043ZM26.9757 12.3038C27.8162 11.3075 28.4108 9.9251 28.4108 8.5427C28.4108 8.351 28.3946 8.1566 28.3595 8C26.9919 8.0513 25.3649 8.9099 24.3838 10.0466C23.6135 10.9214 22.8946 12.3038 22.8946 13.7051C22.8946 13.9157 22.9297 14.1263 22.9459 14.1938C23.0324 14.21 23.173 14.2289 23.3135 14.2289C24.5405 14.2289 26.0838 13.4081 26.9757 12.3038Z" fill="#E0E0E0"/>
</svg>
