<svg width="46" height="46" viewBox="0 0 46 46" fill="none" xmlns="http://www.w3.org/2000/svg">
<path d="M41.2054 4.80628C36.8656 0.48318 30.6255 0 23 0C15.3649 0 9.11537 0.48875 4.77735 4.82353C0.439964 9.15652 0 15.396 0 23.0224C0 30.65 0.439965 36.8914 4.77915 41.2259C9.11689 45.5613 15.3657 46.0001 23 46.0001C30.6344 46.0001 36.8821 45.5613 41.2199 41.2259C45.5588 36.8906 46 30.65 46 23.0224C46 15.3862 45.554 9.13998 41.2054 4.80628Z" fill="#F3F3F3"/>
<path class="icon-bg" fill-rule="evenodd" clip-rule="evenodd" d="M24.2894 23.3218C24.2894 23.3218 23.9295 23.1163 23.7069 23.0368C23.7069 23.0368 23.0178 22.7421 22.8811 22.6019C22.8811 22.6019 22.6126 22.3683 22.7698 22.097C22.7698 22.097 22.8357 21.9195 23.1194 21.9195C23.1194 21.9195 23.4889 21.9383 23.4889 22.2185V22.6138H24.8129L24.8106 22.0316C24.8106 22.0316 24.9124 21.0781 23.2511 21.0362C23.2511 21.0362 21.9444 20.9569 21.5696 21.6064C21.5696 21.6064 21.4225 21.7514 21.4225 22.256V22.6206C21.4225 22.6206 21.4075 23.0413 21.6403 23.3124C21.6403 23.3124 21.7719 23.4901 22.0961 23.6862C22.0961 23.6862 22.7544 24.0133 23.1495 24.2006C23.1495 24.2006 23.5482 24.4108 23.4958 24.7451C23.4958 24.7451 23.4633 25.0884 23.0781 25.0744C23.0781 25.0744 22.726 25.0599 22.726 24.7232V24.3281H21.3151V24.902C21.3151 24.902 21.2757 25.9995 23.0885 25.9995C23.0885 25.9995 24.8207 26.0319 24.9016 24.8732V24.4058C24.9013 24.4058 24.9627 23.6958 24.2894 23.3218ZM17.511 21.1728L17.0677 23.7369H16.964L16.5405 21.1958H14.3289L14.2181 25.8392H15.5275L15.5432 22.3406H15.6462L16.3403 25.8386H17.7179L18.4034 22.3419H18.4946L18.5263 25.8392H19.8427L19.7009 21.1728H17.511ZM9.71611 21.1922L8.84491 25.8339H10.2546L10.7707 22.2349H10.8866L11.4024 25.8339H12.8119L11.9409 21.1922H9.71611ZM39.2955 23.2578V23.9426H39.6571V24.6776C39.6571 25.0369 39.3243 25.0435 39.3243 25.0435C38.9198 25.0435 38.935 24.7021 38.935 24.7021V22.1597C38.935 21.8978 39.2941 21.8837 39.2941 21.8837C39.6386 21.8837 39.6409 22.1961 39.6409 22.1961V22.5827H40.9681C41.0115 21.8281 40.8485 21.6454 40.8485 21.6454C40.5193 20.9631 39.2738 21.0004 39.2738 21.0004C37.3598 21.0004 37.5722 22.3557 37.5722 22.3557V24.814C37.6133 26.0852 39.4994 25.956 39.5312 25.9549C40.3701 25.8693 40.6234 25.6231 40.6234 25.6231C40.8566 25.4633 40.9166 25.2419 40.9166 25.2419C40.9834 25.1129 41 24.7021 41 24.7021V23.2578H39.2955ZM34.896 24.0133H34.8383L33.4914 21.174H31.88V25.8397H33.1915L33.113 23.0008H33.1716L34.567 25.8397H36.1295V21.1736H34.8014L34.896 24.0133ZM28.6785 24.6771C28.6785 24.6771 28.6974 25.0601 28.3127 25.0601C28.3127 25.0601 27.9082 25.0801 27.9082 24.6867L27.904 21.1768H26.4655V24.6588C26.4655 24.6588 26.3179 25.9767 28.333 25.9767C28.333 25.9767 30.0842 25.9959 30.0842 24.7193V21.177H28.6785V24.6771ZM6.97366 23.3218C6.97366 23.3218 6.61414 23.1163 6.39132 23.037C6.39132 23.037 5.70276 22.7425 5.56606 22.6021C5.56606 22.6021 5.29752 22.3681 5.455 22.0974C5.455 22.0974 5.52058 21.9199 5.80413 21.9199C5.80413 21.9199 6.17381 21.9385 6.17381 22.2187V22.614H7.49827L7.49573 22.0316C7.49573 22.0316 7.59687 21.0781 5.9362 21.0364C5.9362 21.0364 5.81105 21.0289 5.62749 21.0374C5.62749 21.0374 4.62143 21.0873 4.26168 21.5966C4.25961 21.6005 4.2566 21.6032 4.25453 21.6067C4.25453 21.6067 4.10767 21.7514 4.10767 22.2562V22.6208C4.10767 22.6208 4.09243 23.0415 4.32541 23.3126C4.32541 23.3126 4.45703 23.4903 4.78122 23.6864C4.78122 23.6864 5.4393 24.0135 5.83438 24.2008C5.83438 24.2008 6.23361 24.4105 6.18073 24.7453C6.18073 24.7453 6.14818 25.0887 5.76326 25.0746C5.76326 25.0746 5.41113 25.0601 5.41113 24.7234V24.3281H4.00007V24.9024C4.00007 24.9024 3.96058 25.9999 5.77342 25.9999C5.77342 25.9999 7.5052 26.0323 7.58671 24.8736V24.4067C7.58671 24.4063 7.64721 23.6958 6.97366 23.3218Z" fill="#E0E0E0"/>
</svg>
