<svg width="46" height="46" viewBox="0 0 46 46" fill="none" xmlns="http://www.w3.org/2000/svg">
<path d="M41.2054 4.80628C36.8656 0.48318 30.6255 0 23 0C15.3649 0 9.11537 0.48875 4.77735 4.82353C0.439964 9.15652 0 15.396 0 23.0224C0 30.65 0.439965 36.8914 4.77915 41.2259C9.11689 45.5613 15.3657 46.0001 23 46.0001C30.6344 46.0001 36.8821 45.5613 41.2199 41.2259C45.5588 36.8906 46 30.65 46 23.0224C46 15.3862 45.554 9.13998 41.2054 4.80628Z" fill="#EB5757"/>
<path d="M36.3466 14.2497C36.5047 14.2497 36.6362 14.377 36.6362 14.5337V31.5488C36.6362 31.7029 36.5047 31.8308 36.3466 31.8308H32.6185C32.4585 31.8308 32.3285 31.7029 32.3285 31.5488V14.5337C32.3285 14.3771 32.4584 14.2497 32.6185 14.2497H36.3466ZM20.1678 14.2497C22.9801 14.2497 25.9207 14.3786 27.3711 15.8299C28.797 17.2582 28.9514 20.1019 28.9574 22.8634V31.5487C28.9574 31.7028 28.8274 31.8307 28.6681 31.8307H24.9405C24.7809 31.8307 24.6504 31.7028 24.6504 31.5487V22.714C24.6465 21.1717 24.5578 19.5866 23.7624 18.7886C23.0778 18.1021 21.8003 17.9449 20.4719 17.9122H13.7147C13.5563 17.9122 13.4265 18.0397 13.4265 18.194V31.5488C13.4265 31.7029 13.2952 31.8308 13.1357 31.8308H9.40574C9.24636 31.8308 9.11815 31.7029 9.11815 31.5488V14.5337C9.11815 14.3771 9.24627 14.2497 9.40574 14.2497H20.1678ZM21.0021 21.0263C21.1608 21.0263 21.2897 21.1533 21.2897 21.3087V31.5488C21.2897 31.7029 21.1607 31.8308 21.0021 31.8308H17.0864C16.9254 31.8308 16.7964 31.7029 16.7964 31.5488V21.3087C16.7964 21.1533 16.9254 21.0263 17.0864 21.0263H21.0021Z" fill="black"/>
</svg>
